# xmcd CD database file
#
# Track frame offsets:
#	150
#	14172
#	30178
#	45998
#	57472
#	70275
#	85501
#	97568
#	115747
#	129292
#	142538
#	151389
#	169039
#	181050
#	196992
#	215280
#	224257
#	236231
#	247790
#	264890
#
# Disc length: 4177 seconds
#
# Revision: 0
# Processed by: cddbd v1.5.1PL2 Copyright (c) Steve Scherf et al.
# Submitted via: CDex 1.70beta2
#
DISCID=f4104f14
DTITLE=Grassland - Grass´n´Groove
DYEAR=2001
DGENRE=Jazz
TTITLE0=Fox on the run
TTITLE1=Bonnie and Clyde and Foggy Mountain Breakdown
TTITLE2=Way Downtown
TTITLE3=Katy Daly
TTITLE4=Dragging´ the Bow
TTITLE5=Scissors, Paper and Stone
TTITLE6=I´ll Tell Me Ma
TTITLE7=Chief O´Neil´s Favourite and Rakish Paddy
TTITLE8=Dixieland
TTITLE9=Dear Old Dixie
TTITLE10=Darling Corey
TTITLE11=Drunken Hiccoughs and Black Mountain Rag
TTITLE12=Walkl in the Irish Rain
TTITLE13=Star of the Country Down
TTITLE14=Orange Blossom Special
TTITLE15=Shady Grove
TTITLE16=Graveyard Shift
TTITLE17=Flint Hill Special
TTITLE18=The Devil Went Down To Georgia
TTITLE19=Rocky Top
EXTD=YEAR: 2001
EXTT0=
EXTT1=
EXTT2=
EXTT3=
EXTT4=
EXTT5=
EXTT6=
EXTT7=
EXTT8=
EXTT9=
EXTT10=
EXTT11=
EXTT12=
EXTT13=
EXTT14=
EXTT15=
EXTT16=
EXTT17=
EXTT18=
EXTT19=
PLAYORDER=
